PathFileType	4	(X/Y/Z)	SUBJ62_1_walk_RCNL2025.trc
DataRate	CameraRate	NumFrames	NumMarkers	Units	OrigDataRate	OrigDataStartFrame	OrigNumFrames
100	100	13	25	mm	100	79	315
Frame#	Time	R_Shoulder			L_Shoulder			C7			J_Notch			R_Elbow			L_Elbow			R_Wrist			L_Wrist			R_Asis			L_Asis			Sacral			Thoracic			Sternum			R_Thigh_Lateral			R_Knee_Lateral			R_Shank_Lateral			R_Ankle_Lateral			R_Heel			R_Toe			L_Thigh_Lateral			L_Knee_Lateral			L_Shank_Lateral			L_Ankle_Lateral			L_Heel			L_Toe		
		X1	Y1	Z1	X2	Y2	Z2	X3	Y3	Z3	X4	Y4	Z4	X5	Y5	Z5	X6	Y6	Z6	X7	Y7	Z7	X8	Y8	Z8	X9	Y9	Z9	X10	Y10	Z10	X11	Y11	Z11	X12	Y12	Z12	X13	Y13	Z13	X14	Y14	Z14	X15	Y15	Z15	X16	Y16	Z16	X17	Y17	Z17	X18	Y18	Z18	X19	Y19	Z19	X20	Y20	Z20	X21	Y21	Z21	X22	Y22	Z22	X23	Y23	Z23	X24	Y24	Z24	X25	Y25	Z25
79	0.78000000	-314.691315	1279.127686	-38.096455	-334.584167	1281.912354	-378.696655	-397.367706	1346.127930	-208.015640	-264.305756	1263.125732	-213.503754	-325.540070	979.753662	36.097809	-394.707214	981.255615	-431.639587	-185.689751	807.934784	16.651206	-358.362717	764.332062	-422.921936	-282.337952	859.475952	-55.198559	-250.760513	872.404297	-314.766235	-440.217163	865.648132	-207.508789	-454.904816	1148.024902	-201.369659	-243.090454	1063.381470	-203.503098	-347.055237	470.383606	13.764043	-348.072174	408.466766	-57.287701	-476.021942	290.197418	-28.196640	-631.844482	190.121170	-108.504158	-665.482544	225.644943	-154.299133	-601.317017	85.138428	-128.551682	-238.559250	474.404541	-351.981476	-243.815521	411.435333	-298.205139	-225.136597	215.854858	-317.368286	-244.387375	52.857601	-244.020691	-303.024506	51.788223	-201.719254	-136.617249	38.755943	-230.449509
80	0.79000000	-303.927673	1280.114258	-38.031769	-323.058807	1283.105225	-378.598907	-386.150818	1347.377075	-208.215973	-253.253891	1264.116577	-213.481216	-319.398071	980.435242	34.694733	-377.729401	981.859192	-434.271332	-186.775986	802.942383	17.584422	-335.350723	766.065918	-425.764145	-271.975006	860.766968	-55.872837	-240.814819	872.845032	-315.442047	-430.103180	866.689697	-208.016006	-444.117523	1149.482300	-201.896957	-232.596954	1064.288818	-203.595596	-327.893433	471.238647	14.637109	-327.073792	409.651886	-56.257351	-455.744568	293.754120	-27.247000	-613.380371	196.340057	-106.869179	-646.348938	231.032913	-153.619400	-582.266479	91.360420	-124.555397	-235.965698	473.734009	-352.778259	-240.997147	411.218140	-298.667755	-223.984955	215.392258	-317.732452	-244.466873	52.751385	-244.076096	-302.970367	51.960442	-201.696899	-136.613251	38.668903	-230.405899
81	0.80000000	-293.288483	1280.959961	-37.900837	-311.606720	1284.242554	-378.459564	-375.000977	1348.587769	-208.370392	-242.303955	1265.018921	-213.402176	-313.262512	981.095642	33.313946	-360.715485	982.527039	-436.863861	-188.138870	798.261047	18.507249	-312.096527	768.086334	-428.526199	-261.661285	862.144043	-56.520164	-231.040100	873.173706	-316.054199	-420.093719	867.737671	-208.467957	-433.440338	1150.907471	-202.425293	-222.259033	1065.093628	-203.689240	-309.774811	472.437927	15.012659	-306.144684	411.372437	-55.490833	-435.146271	297.730347	-26.414236	-593.913757	201.633408	-105.290840	-626.550415	235.171448	-153.003586	-561.411743	96.985840	-120.540291	-233.545853	473.085052	-353.418304	-238.308273	411.039124	-299.010132	-222.897034	214.986877	-318.012177	-244.527145	52.655010	-244.076324	-302.909576	52.145023	-201.657425	-136.604004	38.572933	-230.347244
82	0.81000000	-282.767090	1281.684448	-37.729248	-300.248474	1285.343018	-378.291168	-363.932343	1349.749268	-208.487701	-231.468079	1265.840210	-213.273926	-307.150940	981.751892	31.963856	-343.665009	983.288025	-439.388947	-189.712204	793.958069	19.406887	-288.660980	770.419250	-431.169083	-251.349899	863.618591	-57.153179	-221.423904	873.450195	-316.615936	-410.169159	868.795044	-208.848541	-422.857758	1152.277344	-202.948853	-212.048279	1065.809570	-203.801483	-292.449951	473.891998	14.940394	-285.275269	413.546448	-54.973099	-414.179810	301.878693	-25.671629	-573.409912	205.751724	-103.778191	-606.141541	237.958435	-152.314697	-538.906189	101.806831	-116.672066	-231.155075	472.509705	-353.880188	-235.715881	410.908844	-299.230255	-221.913712	214.641296	-318.222351	-244.547302	52.573864	-244.006714	-302.841461	52.343685	-201.597961	-136.587646	38.472832	-230.275452
83	0.82000000	-272.360168	1282.308350	-37.537514	-289.000824	1286.421631	-378.107452	-352.956482	1350.847412	-208.577667	-220.761658	1266.583008	-213.103638	-301.091248	982.420044	30.651451	-326.582764	984.164124	-441.816040	-191.427338	790.088745	20.261663	-265.104576	773.084412	-433.656982	-241.003693	865.189270	-57.778713	-211.936447	873.716492	-317.155426	-400.312286	869.851562	-209.141342	-412.352356	1153.569458	-203.460892	-201.934586	1066.452148	-203.942947	-275.567688	475.506134	14.504964	-264.467560	416.076111	-54.688179	-392.819489	305.900238	-25.009188	-551.864685	208.529343	-102.355072	-585.174744	239.324722	-151.470215	-514.886169	105.703560	-113.084007	-228.693695	472.039398	-354.168030	-233.204071	410.823730	-299.335754	-221.073349	214.351990	-318.379852	-244.514572	52.507221	-243.861603	-302.766510	52.557045	-201.518158	-136.563736	38.371822	-230.193542
84	0.83000000	-262.064941	1282.849365	-37.339230	-277.874359	1287.487427	-377.922272	-342.080994	1351.867310	-208.649353	-210.199554	1267.244385	-212.898987	-295.117584	983.112427	29.382126	-309.479340	985.168335	-444.113220	-193.216309	786.690399	21.045115	-241.484138	776.093994	-435.961441	-230.605118	866.836426	-58.403637	-202.541595	873.994202	-317.703522	-390.507874	870.885315	-209.330063	-401.907410	1154.764893	-203.955582	-191.889587	1067.035278	-204.117096	-258.779938	477.203735	13.806939	-243.747452	418.863739	-54.618057	-371.081116	309.527802	-24.421061	-529.303955	209.893082	-101.038521	-563.675842	239.229065	-150.445053	-489.488770	108.611542	-109.854225	-226.101974	471.685242	-354.300415	-230.760681	410.770477	-299.340729	-220.390289	214.111694	-318.496429	-244.422867	52.452690	-243.647766	-302.686188	52.785809	-201.421356	-136.532364	38.271523	-230.104218
85	0.84000000	-251.874725	1283.320923	-37.142857	-266.873627	1288.542725	-377.746674	-331.309540	1352.795166	-208.709686	-199.788162	1267.820923	-212.668991	-289.265381	983.838135	28.161165	-292.370392	986.304138	-446.249664	-195.013016	783.780548	21.731073	-217.853111	779.451294	-438.061172	-220.164185	868.518555	-59.037338	-193.209213	874.282288	-318.281647	-380.743073	871.867493	-209.400696	-391.508514	1155.846069	-204.429306	-181.888290	1067.567627	-204.322937	-241.830963	478.936859	12.947478	-223.164703	421.821564	-54.742119	-349.018707	312.572632	-23.899336	-505.780151	209.841827	-99.833900	-541.639160	237.652191	-149.264465	-462.861816	110.505882	-106.994720	-223.352722	471.441803	-354.301575	-228.366211	410.733093	-299.262085	-219.842072	213.911469	-318.578247	-244.269958	52.409840	-243.382904	-302.602417	53.031300	-201.313538	-136.493362	38.172112	-230.008591
86	0.85000000	-241.775650	1283.729370	-36.954006	-255.997452	1289.583984	-377.586700	-320.640930	1353.619141	-208.762726	-189.518127	1268.311768	-212.426376	-283.565491	984.602661	26.995401	-275.276794	987.565247	-448.200256	-196.753662	781.356873	22.297599	-194.262779	783.150330	-439.941650	-209.708755	870.178894	-59.685863	-183.915436	874.557495	-318.899445	-371.007874	872.768005	-209.345047	-381.144470	1156.796875	-204.880707	-171.909348	1068.050537	-204.558212	-224.600677	480.685455	12.018949	-202.783875	424.876007	-55.035679	-326.705322	314.925323	-23.434742	-481.376892	208.419540	-98.735550	-519.035522	234.590668	-147.988815	-435.150177	111.393906	-104.467293	-220.441040	471.292725	-354.196899	-225.989273	410.699219	-299.116302	-219.367798	213.742401	-318.626190	-244.058655	52.380524	-243.092514	-302.516052	53.294720	-201.200653	-136.446060	38.072956	-229.906128
87	0.86000000	-231.747437	1284.072876	-36.775661	-245.240509	1290.601562	-377.442291	-310.068878	1354.328369	-208.808853	-179.362839	1268.716797	-212.188644	-278.038757	985.406860	25.893225	-258.225769	988.935608	-449.950684	-198.375702	779.397888	22.729716	-170.762543	787.176270	-441.595718	-199.264450	871.757935	-60.346806	-174.637222	874.780518	-319.556671	-361.293549	873.559631	-209.162796	-370.807190	1157.604370	-205.309341	-161.935608	1068.477783	-204.819824	-207.095276	482.450226	11.100155	-182.673615	427.965668	-55.467697	-304.212585	316.532745	-23.019146	-456.207306	205.693558	-97.724800	-495.821106	230.054184	-146.689346	-406.476318	111.307663	-102.211113	-217.374466	471.216156	-354.009674	-223.589890	410.662415	-298.916809	-218.877701	213.596664	-318.635590	-243.802383	52.368740	-242.808228	-302.424927	53.576252	-201.085754	-136.389328	37.973671	-229.795258
88	0.87000000	-221.767090	1284.342285	-36.607132	-234.594986	1291.580933	-377.308319	-299.583557	1354.912109	-208.844940	-169.282425	1269.033203	-211.976181	-272.692810	986.244507	24.863270	-241.251709	990.390686	-451.500061	-199.817871	777.864105	23.021517	-147.401340	791.507019	-443.023285	-188.843994	873.204285	-61.009922	-165.350082	874.905212	-320.244659	-351.590942	874.219421	-208.861069	-360.489807	1158.259644	-205.712784	-151.955048	1068.836670	-205.102509	-189.403137	484.243988	10.255269	-162.899323	431.035400	-56.000465	-281.599854	317.373322	-22.647770	-430.383575	201.737442	-96.773102	-471.941162	224.067856	-145.424500	-376.932495	110.295135	-100.167809	-214.166702	471.188080	-353.757812	-221.126816	410.620636	-298.674286	-218.271957	213.467773	-318.596649	-243.528763	52.380157	-242.564606	-302.320923	53.875145	-200.967606	-136.321396	37.875538	-229.675049
89	0.88000000	-211.811752	1284.522827	-36.444019	-224.050354	1292.502930	-377.177673	-289.173004	1355.360107	-208.865707	-159.231186	1269.256348	-211.808685	-267.520538	987.101990	23.913452	-224.395599	991.899597	-452.861908	-201.023399	776.700562	23.177661	-124.229874	796.114227	-444.229919	-178.448273	874.478943	-61.659485	-156.030365	874.888245	-320.946747	-341.889221	874.729126	-208.453308	-350.185822	1158.758667	-206.084930	-141.959976	1069.110107	-205.399414	-171.642319	486.083008	9.534585	-143.519226	434.030304	-56.592300	-258.913971	317.443573	-22.319656	-403.973053	196.620239	-95.852753	-447.333221	216.678131	-144.226685	-346.580536	108.413445	-98.300911	-210.833969	471.184143	-353.454010	-218.564575	410.573181	-298.397980	-217.464691	213.350204	-318.497375	-243.271042	52.419106	-242.387619	-302.190155	54.191841	-200.843018	-136.237854	37.783234	-229.546890
90	0.89000000	-201.859055	1284.595825	-36.280148	-213.592712	1293.344849	-377.044250	-278.822845	1355.664062	-208.865707	-149.167725	1269.380981	-211.700470	-262.499023	987.958862	23.050428	-207.702896	993.427246	-454.062317	-201.943138	775.841858	23.213036	-101.298641	800.963593	-445.223267	-168.069427	875.556641	-62.277424	-146.661285	874.696716	-321.637268	-332.176239	875.075623	-207.958084	-339.893799	1159.101440	-206.419586	-131.945694	1069.279541	-205.703384	-153.920303	487.979431	8.975291	-124.583496	436.893280	-57.202122	-236.193878	316.754578	-22.034946	-376.982300	190.406296	-94.945663	-421.933624	207.959167	-143.099854	-315.451569	105.728973	-96.606979	-207.391495	471.182343	-353.109680	-215.878525	410.518829	-298.096680	-216.406448	213.239807	-318.329895	-243.052643	52.486359	-242.284134	-302.016998	54.531902	-200.712982	-136.129181	37.706635	-229.415955
91	0.90000000	-191.888245	1284.541992	-36.109932	-203.206177	1294.080444	-376.903442	-268.516144	1355.819092	-208.840271	-139.066360	1269.399170	-211.654404	-257.589722	988.789734	22.278698	-191.216217	994.938049	-455.131744	-202.534561	775.218536	23.149701	-78.652420	806.015228	-446.008255	-157.692963	876.425903	-62.847279	-137.239151	874.309692	-322.282715	-322.439606	875.251099	-207.396698	-329.624420	1159.294312	-206.718918	-121.910469	1069.327271	-206.006943	-136.315247	489.934875	8.600622	-106.135902	439.565704	-57.795078	-213.470245	315.330963	-21.791565	-349.372101	183.165894	-94.044884	-395.684601	198.015793	-142.026505	-283.549042	102.326042	-95.114410	-203.847382	471.166748	-352.739441	-213.056915	410.456696	-297.778870	-215.098831	213.135849	-318.100220	-242.881058	52.580509	-242.246307	-301.790131	54.907494	-200.586777	-135.979355	37.662098	-229.292023
